<?xml version="1.0" encoding="UTF-8" standalone="no"?>
<svg enable-background="new 0 0 485 485"
   id="svg16"
   version="1.1"
   viewBox="0 0 485 485"
   xml:space="preserve"
   width="485pt"
   height="485pt"
   xmlns="http://www.w3.org/2000/svg">

  <g
     transform="matrix(0.50554804,0,0,-0.50554804,0.93917517,485.50001)"
     id="g14">
    <path
       d="m 312,867 c -50,-51 -92,-97 -92,-103 0,-5 27,-36 60,-69 l 60,-59 25,25 25,25 -40,39 -40,39 52,53 52,53 41,-40 41,-40 27,28 27,29 -59,56 c -33,31 -66,57 -73,57 -7,0 -55,-42 -106,-93 z"
       id="path4" />
    <path
       d="M 481,695 345,561 385,519 c 25,-26 32,-37 18,-30 -25,13 -113,15 -113,3 0,-5 13,-21 29,-36 25,-24 28,-33 21,-52 -18,-46 18,-82 63,-65 21,8 29,5 53,-20 15,-16 31,-29 36,-29 12,0 10,88 -3,113 -7,14 4,7 30,-18 l 42,-40 134,136 c 77,77 135,144 135,154 0,10 -40,58 -88,107 -49,48 -97,88 -107,88 -10,0 -77,-58 -154,-135 z"
       id="path6" />
    <path
       d="m 817,522 -27,-28 40,-39 40,-39 -52,-53 -52,-53 -41,40 -41,40 -24,-25 -24,-25 59,-60 c 33,-33 64,-60 70,-60 6,0 52,42 104,94 71,71 92,98 87,113 -3,10 -30,42 -59,71 l -53,52 z"
       id="path8" />
    <path
       d="M 10,315 C -20,279 33,136 97,79 167,18 292,-19 319,13 344,44 328,63 270,74 162,96 96,162 75,269 66,313 59,326 43,328 32,330 17,324 10,315 Z"
       id="path10" />
    <path
       d="m 162,318 c -18,-18 -15,-59 8,-96 37,-61 121,-92 151,-56 18,22 2,44 -41,58 -32,10 -39,19 -70,86 -9,20 -32,24 -48,8 z"
       id="path12" />
  </g>
</svg>
